<mxfile host="Electron" modified="2023-11-09T08:58:51.694Z" agent="Mozilla/5.0 (Windows NT 10.0; Win64; x64) AppleWebKit/537.36 (KHTML, like Gecko) draw.io/21.4.0 Chrome/112.0.5615.204 Electron/24.5.1 Safari/537.36" etag="d5ggb4whYTxrQV_MlzY5" version="21.4.0" type="device" pages="2">
  <diagram name="第 1 页" id="FTyB4VeNcjm-yHeaWqGv">
    <mxGraphModel dx="2375" dy="902" grid="1" gridSize="10" guides="1" tooltips="1" connect="1" arrows="1" fold="1" page="1" pageScale="1" pageWidth="827" pageHeight="1169" math="0" shadow="0">
      <root>
        <mxCell id="0" />
        <mxCell id="1" parent="0" />
        <mxCell id="ckGVmYNdXMMOKh282JKz-1" value="" style="rounded=0;whiteSpace=wrap;html=1;fillColor=#f5f5f5;fontColor=#333333;strokeColor=#666666;sketch=1;curveFitting=1;jiggle=2;" parent="1" vertex="1">
          <mxGeometry x="-265" y="405" width="220" height="240" as="geometry" />
        </mxCell>
        <mxCell id="gSSKfqie08pS3uxTmEWE-26" style="edgeStyle=orthogonalEdgeStyle;rounded=0;orthogonalLoop=1;jettySize=auto;html=1;exitX=0.5;exitY=1;exitDx=0;exitDy=0;sketch=1;curveFitting=1;jiggle=2;" edge="1" parent="1" source="ckGVmYNdXMMOKh282JKz-2" target="gSSKfqie08pS3uxTmEWE-8">
          <mxGeometry relative="1" as="geometry" />
        </mxCell>
        <mxCell id="gSSKfqie08pS3uxTmEWE-27" style="edgeStyle=orthogonalEdgeStyle;rounded=0;orthogonalLoop=1;jettySize=auto;html=1;exitX=0.5;exitY=1;exitDx=0;exitDy=0;sketch=1;curveFitting=1;jiggle=2;" edge="1" parent="1" source="ckGVmYNdXMMOKh282JKz-2" target="gSSKfqie08pS3uxTmEWE-14">
          <mxGeometry relative="1" as="geometry" />
        </mxCell>
        <mxCell id="gSSKfqie08pS3uxTmEWE-29" style="edgeStyle=orthogonalEdgeStyle;rounded=0;sketch=1;hachureGap=4;jiggle=2;curveFitting=1;orthogonalLoop=1;jettySize=auto;html=1;exitX=0.5;exitY=1;exitDx=0;exitDy=0;entryX=0.5;entryY=0;entryDx=0;entryDy=0;fontFamily=Architects Daughter;fontSource=https%3A%2F%2Ffonts.googleapis.com%2Fcss%3Ffamily%3DArchitects%2BDaughter;fontSize=16;" edge="1" parent="1" source="ckGVmYNdXMMOKh282JKz-2" target="gSSKfqie08pS3uxTmEWE-19">
          <mxGeometry relative="1" as="geometry" />
        </mxCell>
        <mxCell id="ckGVmYNdXMMOKh282JKz-2" value="总线服务（负责转发请求和创建资源）" style="rounded=0;whiteSpace=wrap;html=1;sketch=1;curveFitting=1;jiggle=2;fillColor=#f8cecc;strokeColor=#b85450;" parent="1" vertex="1">
          <mxGeometry x="100" y="250" width="550" height="60" as="geometry" />
        </mxCell>
        <mxCell id="ckGVmYNdXMMOKh282JKz-3" value="公共资源命名空间" style="text;html=1;align=center;verticalAlign=middle;whiteSpace=wrap;rounded=0;sketch=1;curveFitting=1;jiggle=2;" parent="1" vertex="1">
          <mxGeometry x="-205" y="405" width="100" height="30" as="geometry" />
        </mxCell>
        <mxCell id="gSSKfqie08pS3uxTmEWE-4" value="公共服务（Pod）" style="rounded=0;whiteSpace=wrap;html=1;fillColor=#f5f5f5;fontColor=#333333;strokeColor=#666666;sketch=1;curveFitting=1;jiggle=2;" vertex="1" parent="1">
          <mxGeometry x="-215" y="465" width="120" height="60" as="geometry" />
        </mxCell>
        <mxCell id="gSSKfqie08pS3uxTmEWE-5" value="公共存储及配置&lt;br&gt;(PV PVC ConfigMap)" style="rounded=0;whiteSpace=wrap;html=1;fillColor=#f5f5f5;fontColor=#333333;strokeColor=#666666;sketch=1;curveFitting=1;jiggle=2;" vertex="1" parent="1">
          <mxGeometry x="-215" y="555" width="120" height="60" as="geometry" />
        </mxCell>
        <mxCell id="gSSKfqie08pS3uxTmEWE-23" style="edgeStyle=orthogonalEdgeStyle;rounded=0;orthogonalLoop=1;jettySize=auto;html=1;exitX=0;exitY=0.5;exitDx=0;exitDy=0;entryX=1.014;entryY=0.711;entryDx=0;entryDy=0;entryPerimeter=0;sketch=1;curveFitting=1;jiggle=2;" edge="1" parent="1" source="gSSKfqie08pS3uxTmEWE-7" target="ckGVmYNdXMMOKh282JKz-1">
          <mxGeometry relative="1" as="geometry" />
        </mxCell>
        <mxCell id="gSSKfqie08pS3uxTmEWE-7" value="" style="rounded=0;whiteSpace=wrap;html=1;fillColor=#d5e8d4;strokeColor=#82b366;sketch=1;curveFitting=1;jiggle=2;" vertex="1" parent="1">
          <mxGeometry x="15" y="405" width="220" height="340" as="geometry" />
        </mxCell>
        <mxCell id="gSSKfqie08pS3uxTmEWE-8" value="用户1独立命名空间" style="text;html=1;align=center;verticalAlign=middle;whiteSpace=wrap;rounded=0;sketch=1;curveFitting=1;jiggle=2;" vertex="1" parent="1">
          <mxGeometry x="65" y="405" width="120" height="30" as="geometry" />
        </mxCell>
        <mxCell id="gSSKfqie08pS3uxTmEWE-9" value="用户独立服务（Pod）" style="rounded=0;whiteSpace=wrap;html=1;fillColor=#d5e8d4;strokeColor=#82b366;sketch=1;curveFitting=1;jiggle=2;" vertex="1" parent="1">
          <mxGeometry x="65" y="465" width="120" height="60" as="geometry" />
        </mxCell>
        <mxCell id="gSSKfqie08pS3uxTmEWE-10" value="用户独立存储&lt;br&gt;（PV和PVC）" style="rounded=0;whiteSpace=wrap;html=1;fillColor=#d5e8d4;strokeColor=#82b366;sketch=1;curveFitting=1;jiggle=2;" vertex="1" parent="1">
          <mxGeometry x="65" y="555" width="120" height="60" as="geometry" />
        </mxCell>
        <mxCell id="gSSKfqie08pS3uxTmEWE-11" value="用户独立配置（configMap）" style="rounded=0;whiteSpace=wrap;html=1;fillColor=#d5e8d4;strokeColor=#82b366;sketch=1;curveFitting=1;jiggle=2;" vertex="1" parent="1">
          <mxGeometry x="65" y="645" width="120" height="60" as="geometry" />
        </mxCell>
        <mxCell id="gSSKfqie08pS3uxTmEWE-24" style="edgeStyle=orthogonalEdgeStyle;rounded=0;orthogonalLoop=1;jettySize=auto;html=1;exitX=0.5;exitY=1;exitDx=0;exitDy=0;entryX=0.5;entryY=1;entryDx=0;entryDy=0;sketch=1;curveFitting=1;jiggle=2;" edge="1" parent="1" source="gSSKfqie08pS3uxTmEWE-13" target="ckGVmYNdXMMOKh282JKz-1">
          <mxGeometry relative="1" as="geometry" />
        </mxCell>
        <mxCell id="gSSKfqie08pS3uxTmEWE-13" value="" style="rounded=0;whiteSpace=wrap;html=1;fillColor=#ffe6cc;strokeColor=#d79b00;sketch=1;curveFitting=1;jiggle=2;" vertex="1" parent="1">
          <mxGeometry x="265" y="405" width="220" height="340" as="geometry" />
        </mxCell>
        <mxCell id="gSSKfqie08pS3uxTmEWE-14" value="用户2独立命名空间" style="text;html=1;align=center;verticalAlign=middle;whiteSpace=wrap;rounded=0;sketch=1;curveFitting=1;jiggle=2;" vertex="1" parent="1">
          <mxGeometry x="315" y="405" width="120" height="30" as="geometry" />
        </mxCell>
        <mxCell id="gSSKfqie08pS3uxTmEWE-15" value="用户独立服务（Pod）" style="rounded=0;whiteSpace=wrap;html=1;fillColor=#ffe6cc;strokeColor=#d79b00;sketch=1;curveFitting=1;jiggle=2;" vertex="1" parent="1">
          <mxGeometry x="315" y="465" width="120" height="60" as="geometry" />
        </mxCell>
        <mxCell id="gSSKfqie08pS3uxTmEWE-16" value="用户独立存储&lt;br&gt;（PV和PVC）" style="rounded=0;whiteSpace=wrap;html=1;fillColor=#ffe6cc;strokeColor=#d79b00;sketch=1;curveFitting=1;jiggle=2;" vertex="1" parent="1">
          <mxGeometry x="315" y="555" width="120" height="60" as="geometry" />
        </mxCell>
        <mxCell id="gSSKfqie08pS3uxTmEWE-17" value="用户独立配置（configMap）" style="rounded=0;whiteSpace=wrap;html=1;fillColor=#ffe6cc;strokeColor=#d79b00;sketch=1;curveFitting=1;jiggle=2;" vertex="1" parent="1">
          <mxGeometry x="315" y="645" width="120" height="60" as="geometry" />
        </mxCell>
        <mxCell id="gSSKfqie08pS3uxTmEWE-25" style="edgeStyle=orthogonalEdgeStyle;rounded=0;orthogonalLoop=1;jettySize=auto;html=1;exitX=0.5;exitY=1;exitDx=0;exitDy=0;entryX=0.5;entryY=1;entryDx=0;entryDy=0;sketch=1;curveFitting=1;jiggle=2;" edge="1" parent="1" source="gSSKfqie08pS3uxTmEWE-18" target="ckGVmYNdXMMOKh282JKz-1">
          <mxGeometry relative="1" as="geometry">
            <Array as="points">
              <mxPoint x="625" y="820" />
              <mxPoint x="-155" y="820" />
            </Array>
          </mxGeometry>
        </mxCell>
        <mxCell id="gSSKfqie08pS3uxTmEWE-18" value="" style="rounded=0;whiteSpace=wrap;html=1;fillColor=#fff2cc;strokeColor=#d6b656;sketch=1;curveFitting=1;jiggle=2;" vertex="1" parent="1">
          <mxGeometry x="515" y="405" width="220" height="340" as="geometry" />
        </mxCell>
        <mxCell id="gSSKfqie08pS3uxTmEWE-19" value="用户3独立命名空间" style="text;html=1;align=center;verticalAlign=middle;whiteSpace=wrap;rounded=0;sketch=1;curveFitting=1;jiggle=2;" vertex="1" parent="1">
          <mxGeometry x="565" y="405" width="120" height="30" as="geometry" />
        </mxCell>
        <mxCell id="gSSKfqie08pS3uxTmEWE-20" value="用户独立服务（Pod）" style="rounded=0;whiteSpace=wrap;html=1;fillColor=#fff2cc;strokeColor=#d6b656;sketch=1;curveFitting=1;jiggle=2;" vertex="1" parent="1">
          <mxGeometry x="565" y="465" width="120" height="60" as="geometry" />
        </mxCell>
        <mxCell id="gSSKfqie08pS3uxTmEWE-21" value="用户独立存储&lt;br&gt;（PV和PVC）" style="rounded=0;whiteSpace=wrap;html=1;fillColor=#fff2cc;strokeColor=#d6b656;sketch=1;curveFitting=1;jiggle=2;" vertex="1" parent="1">
          <mxGeometry x="565" y="555" width="120" height="60" as="geometry" />
        </mxCell>
        <mxCell id="gSSKfqie08pS3uxTmEWE-22" value="用户独立配置（configMap）" style="rounded=0;whiteSpace=wrap;html=1;fillColor=#fff2cc;strokeColor=#d6b656;sketch=1;curveFitting=1;jiggle=2;" vertex="1" parent="1">
          <mxGeometry x="565" y="645" width="120" height="60" as="geometry" />
        </mxCell>
      </root>
    </mxGraphModel>
  </diagram>
  <diagram id="7PKH4QJyzHutSN3LyCkR" name="第 2 页">
    <mxGraphModel dx="1474" dy="859" grid="1" gridSize="10" guides="1" tooltips="1" connect="1" arrows="1" fold="1" page="1" pageScale="1" pageWidth="827" pageHeight="1169" math="0" shadow="0">
      <root>
        <mxCell id="0" />
        <mxCell id="1" parent="0" />
        <mxCell id="k7aq16zRfTWGIeXSY7Wk-3" value="" style="edgeStyle=orthogonalEdgeStyle;rounded=0;sketch=1;hachureGap=4;jiggle=2;curveFitting=1;orthogonalLoop=1;jettySize=auto;html=1;fontFamily=Architects Daughter;fontSource=https%3A%2F%2Ffonts.googleapis.com%2Fcss%3Ffamily%3DArchitects%2BDaughter;fontSize=16;fillColor=#dae8fc;strokeColor=#6c8ebf;" edge="1" parent="1" source="k7aq16zRfTWGIeXSY7Wk-1" target="k7aq16zRfTWGIeXSY7Wk-2">
          <mxGeometry relative="1" as="geometry" />
        </mxCell>
        <mxCell id="k7aq16zRfTWGIeXSY7Wk-1" value="创建service account" style="rounded=0;whiteSpace=wrap;html=1;sketch=1;hachureGap=4;jiggle=2;curveFitting=1;fontFamily=Architects Daughter;fontSource=https%3A%2F%2Ffonts.googleapis.com%2Fcss%3Ffamily%3DArchitects%2BDaughter;fontSize=12;fillColor=#dae8fc;strokeColor=#6c8ebf;" vertex="1" parent="1">
          <mxGeometry x="10" y="470" width="120" height="60" as="geometry" />
        </mxCell>
        <mxCell id="k7aq16zRfTWGIeXSY7Wk-5" value="" style="edgeStyle=orthogonalEdgeStyle;rounded=0;sketch=1;hachureGap=4;jiggle=2;curveFitting=1;orthogonalLoop=1;jettySize=auto;html=1;fontFamily=Architects Daughter;fontSource=https%3A%2F%2Ffonts.googleapis.com%2Fcss%3Ffamily%3DArchitects%2BDaughter;fontSize=16;fillColor=#dae8fc;strokeColor=#6c8ebf;" edge="1" parent="1" source="k7aq16zRfTWGIeXSY7Wk-2" target="k7aq16zRfTWGIeXSY7Wk-4">
          <mxGeometry relative="1" as="geometry" />
        </mxCell>
        <mxCell id="k7aq16zRfTWGIeXSY7Wk-2" value="初始化client" style="rounded=0;whiteSpace=wrap;html=1;sketch=1;hachureGap=4;jiggle=2;curveFitting=1;fontFamily=Architects Daughter;fontSource=https%3A%2F%2Ffonts.googleapis.com%2Fcss%3Ffamily%3DArchitects%2BDaughter;fontSize=12;fillColor=#dae8fc;strokeColor=#6c8ebf;" vertex="1" parent="1">
          <mxGeometry x="230" y="470" width="120" height="60" as="geometry" />
        </mxCell>
        <mxCell id="k7aq16zRfTWGIeXSY7Wk-7" value="" style="edgeStyle=orthogonalEdgeStyle;rounded=0;sketch=1;hachureGap=4;jiggle=2;curveFitting=1;orthogonalLoop=1;jettySize=auto;html=1;fontFamily=Architects Daughter;fontSource=https%3A%2F%2Ffonts.googleapis.com%2Fcss%3Ffamily%3DArchitects%2BDaughter;fontSize=16;fillColor=#dae8fc;strokeColor=#6c8ebf;" edge="1" parent="1" source="k7aq16zRfTWGIeXSY7Wk-4" target="k7aq16zRfTWGIeXSY7Wk-6">
          <mxGeometry relative="1" as="geometry" />
        </mxCell>
        <mxCell id="k7aq16zRfTWGIeXSY7Wk-4" value="创建Namespace" style="rounded=0;whiteSpace=wrap;html=1;sketch=1;hachureGap=4;jiggle=2;curveFitting=1;fontFamily=Architects Daughter;fontSource=https%3A%2F%2Ffonts.googleapis.com%2Fcss%3Ffamily%3DArchitects%2BDaughter;fontSize=12;fillColor=#dae8fc;strokeColor=#6c8ebf;" vertex="1" parent="1">
          <mxGeometry x="430" y="470" width="120" height="60" as="geometry" />
        </mxCell>
        <mxCell id="k7aq16zRfTWGIeXSY7Wk-9" value="" style="edgeStyle=orthogonalEdgeStyle;rounded=0;sketch=1;hachureGap=4;jiggle=2;curveFitting=1;orthogonalLoop=1;jettySize=auto;html=1;fontFamily=Architects Daughter;fontSource=https%3A%2F%2Ffonts.googleapis.com%2Fcss%3Ffamily%3DArchitects%2BDaughter;fontSize=16;fillColor=#dae8fc;strokeColor=#6c8ebf;" edge="1" parent="1" source="k7aq16zRfTWGIeXSY7Wk-6" target="k7aq16zRfTWGIeXSY7Wk-8">
          <mxGeometry relative="1" as="geometry" />
        </mxCell>
        <mxCell id="k7aq16zRfTWGIeXSY7Wk-6" value="读取yaml并修改资源字段" style="rounded=0;whiteSpace=wrap;html=1;sketch=1;hachureGap=4;jiggle=2;curveFitting=1;fontFamily=Architects Daughter;fontSource=https%3A%2F%2Ffonts.googleapis.com%2Fcss%3Ffamily%3DArchitects%2BDaughter;fontSize=12;fillColor=#dae8fc;strokeColor=#6c8ebf;" vertex="1" parent="1">
          <mxGeometry x="630" y="470" width="120" height="60" as="geometry" />
        </mxCell>
        <mxCell id="k7aq16zRfTWGIeXSY7Wk-8" value="创建资源" style="rounded=0;whiteSpace=wrap;html=1;sketch=1;hachureGap=4;jiggle=2;curveFitting=1;fontFamily=Architects Daughter;fontSource=https%3A%2F%2Ffonts.googleapis.com%2Fcss%3Ffamily%3DArchitects%2BDaughter;fontSize=12;fillColor=#dae8fc;strokeColor=#6c8ebf;" vertex="1" parent="1">
          <mxGeometry x="830" y="470" width="120" height="60" as="geometry" />
        </mxCell>
        <mxCell id="k7aq16zRfTWGIeXSY7Wk-13" value="" style="edgeStyle=orthogonalEdgeStyle;rounded=0;sketch=1;hachureGap=4;jiggle=2;curveFitting=1;orthogonalLoop=1;jettySize=auto;html=1;fontFamily=Architects Daughter;fontSource=https%3A%2F%2Ffonts.googleapis.com%2Fcss%3Ffamily%3DArchitects%2BDaughter;fontSize=16;fillColor=#f8cecc;strokeColor=#b85450;" edge="1" parent="1" source="k7aq16zRfTWGIeXSY7Wk-10" target="k7aq16zRfTWGIeXSY7Wk-12">
          <mxGeometry relative="1" as="geometry" />
        </mxCell>
        <mxCell id="k7aq16zRfTWGIeXSY7Wk-10" value="定时任务&lt;br&gt;扫描过期资源" style="rounded=0;whiteSpace=wrap;html=1;sketch=1;hachureGap=4;jiggle=2;curveFitting=1;fontFamily=Architects Daughter;fontSource=https%3A%2F%2Ffonts.googleapis.com%2Fcss%3Ffamily%3DArchitects%2BDaughter;fontSize=12;fillColor=#f8cecc;strokeColor=#b85450;" vertex="1" parent="1">
          <mxGeometry x="10" y="590" width="120" height="60" as="geometry" />
        </mxCell>
        <mxCell id="k7aq16zRfTWGIeXSY7Wk-15" value="" style="edgeStyle=orthogonalEdgeStyle;rounded=0;sketch=1;hachureGap=4;jiggle=2;curveFitting=1;orthogonalLoop=1;jettySize=auto;html=1;fontFamily=Architects Daughter;fontSource=https%3A%2F%2Ffonts.googleapis.com%2Fcss%3Ffamily%3DArchitects%2BDaughter;fontSize=16;fillColor=#f8cecc;strokeColor=#b85450;" edge="1" parent="1" source="k7aq16zRfTWGIeXSY7Wk-12" target="k7aq16zRfTWGIeXSY7Wk-14">
          <mxGeometry relative="1" as="geometry" />
        </mxCell>
        <mxCell id="k7aq16zRfTWGIeXSY7Wk-12" value="删除Namespace" style="rounded=0;whiteSpace=wrap;html=1;sketch=1;hachureGap=4;jiggle=2;curveFitting=1;fontFamily=Architects Daughter;fontSource=https%3A%2F%2Ffonts.googleapis.com%2Fcss%3Ffamily%3DArchitects%2BDaughter;fontSize=12;fillColor=#f8cecc;strokeColor=#b85450;" vertex="1" parent="1">
          <mxGeometry x="230" y="590" width="120" height="60" as="geometry" />
        </mxCell>
        <mxCell id="k7aq16zRfTWGIeXSY7Wk-14" value="删除PV" style="rounded=0;whiteSpace=wrap;html=1;sketch=1;hachureGap=4;jiggle=2;curveFitting=1;fontFamily=Architects Daughter;fontSource=https%3A%2F%2Ffonts.googleapis.com%2Fcss%3Ffamily%3DArchitects%2BDaughter;fontSize=12;fillColor=#f8cecc;strokeColor=#b85450;" vertex="1" parent="1">
          <mxGeometry x="430" y="590" width="120" height="60" as="geometry" />
        </mxCell>
      </root>
    </mxGraphModel>
  </diagram>
</mxfile>
